<?xml version="1.0" encoding="utf-8"?>
<!-- Designed by Vexels.com - 2020 All Rights Reserved - https://vexels.com/terms-and-conditions/  -->
<svg version="1.1" id="Capa_1" xmlns="http://www.w3.org/2000/svg" xmlns:xlink="http://www.w3.org/1999/xlink" x="0px" y="0px"
	 viewBox="0 0 1200 1200" enable-background="new 0 0 1200 1200" xml:space="preserve">
<g>
	<path fill="#F23F5D" d="M681.996,466.03c-34.914-9.167-57.654,23.357-63.776,33.554c-3.821,6.376-10.54,10.235-17.978,10.299
		c-0.07,0.006-0.14,0.006-0.203,0.006c-7.336,0-14.024-3.713-17.921-9.949c-6.224-9.936-29.288-41.805-64.539-33.757
		c-13.744,3.141-31.106,17.775-36.758,42.473c-7.912,34.586,10.416,74.168,50.404,110.202l30.537-25.027
		c27.463-22.498,67.044-22.161,94.107,0.782l20.563,17.43c46.705-45.305,47.161-83.146,42.756-102.452
		C713.547,484.898,695.957,469.698,681.996,466.03z"/>
	<path fill="#F8DAC9" d="M500.68,643.888c-67.074-62.835-63.242-120.757-57.934-143.942c8.188-35.791,34.755-64.66,66.116-71.844
		c37.597-8.576,69.32,8.093,90.903,31.068c21.64-23.935,53.764-41.004,92.161-30.915c31.507,8.284,57.158,36.796,65.34,72.645
		c6.182,27.073,6.767,78.998-50.896,136.519l23.398,19.832l217.168-112.892V356.093c0-1.723-1.405-3.128-3.128-3.128H256.192
		c-1.723,0-3.128,1.405-3.128,3.128V544.36L478.886,661.75L500.68,643.888z"/>
	<polygon fill="#FAF5F7" points="985.995,431.844 985.995,524.054 1066.588,482.159 	"/>
	<polygon fill="#FAF5F7" points="214.005,431.844 133.411,482.16 214.005,524.057 	"/>
	<path fill="#FAF5F7" d="M618.074,202.145c-10.973-6.853-25.175-6.853-36.16,0L402.908,313.906h394.177L618.074,202.145z"/>
	<path fill="#FAF5F7" d="M1109.17,978.831c1.049-3.295,1.771-6.735,1.771-10.373V503.124L761.964,684.539L1109.17,978.831z"/>
	<path fill="#FAF5F7" d="M714.599,695.586l-83.983-71.184c-12.689-10.75-31.233-10.903-44.1-0.362l-43.454,35.612
		c-0.029,0.023-0.056,0.047-0.084,0.07l-49.17,40.297c-0.033,0.028-0.067,0.054-0.1,0.081l-369.541,302.853h952.273
		c0.242,0,0.467-0.066,0.709-0.072L714.762,695.723C714.706,695.678,714.654,695.632,714.599,695.586z"/>
	<path fill="#FAF5F7" d="M89.059,503.124v465.334c0,3.915,0.798,7.616,2.004,11.127l354.952-290.897L89.059,503.124z"/>
	<path fill="#18273D" d="M1132.536,467.568c-7.217-4.389-15.461-6.015-23.5-4.957l-123.042-76.816v-29.702
		c0-23.261-18.926-42.187-42.187-42.187h-72.966L638.76,169.011c-23.541-14.692-53.961-14.704-77.527,0L329.151,313.906h-72.959
		c-23.261,0-42.187,18.926-42.187,42.187v29.702L90.963,462.611c-8.036-1.058-16.279,0.569-23.5,4.957
		C56.529,474.205,50,485.807,50,498.598v469.86c0,40.559,33.001,73.554,73.56,73.554h952.88c18.752,0,35.836-7.113,48.841-18.706
		c0.092-0.072,0.17-0.163,0.261-0.237c14.973-13.473,24.458-32.931,24.458-54.611v-469.86
		C1150,485.807,1143.471,474.205,1132.536,467.568z M985.995,431.844l80.593,50.315l-80.593,41.895V431.844z M581.914,202.145
		c10.985-6.853,25.188-6.853,36.16,0l179.011,111.761H402.908L581.914,202.145z M253.064,356.093c0-1.723,1.405-3.128,3.128-3.128
		h687.616c1.723,0,3.128,1.405,3.128,3.128v188.265L729.768,657.25l-23.398-19.832c57.664-57.521,57.079-109.446,50.896-136.519
		c-8.182-35.849-33.833-64.361-65.34-72.645c-38.398-10.089-70.521,6.98-92.161,30.915c-21.583-22.975-53.306-39.644-90.903-31.068
		c-31.36,7.184-57.928,36.052-66.116,71.844c-5.308,23.186-9.14,81.107,57.934,143.942l-21.794,17.862L253.064,544.36V356.093z
		 M676.43,612.042l-20.563-17.43c-27.063-22.943-66.643-23.28-94.107-0.782l-30.537,25.027
		c-39.987-36.033-58.315-75.615-50.404-110.202c5.652-24.698,23.013-39.332,36.758-42.473c35.251-8.048,58.315,23.821,64.539,33.757
		c3.897,6.236,10.585,9.949,17.921,9.949c0.064,0,0.133,0,0.203-0.006c7.438-0.064,14.158-3.922,17.978-10.299
		c6.122-10.197,28.862-42.721,63.776-33.554c13.961,3.668,31.551,18.868,37.19,43.56
		C723.592,528.896,723.136,566.737,676.43,612.042z M214.005,431.844v92.212l-80.594-41.896L214.005,431.844z M91.063,979.585
		c-1.206-3.51-2.004-7.212-2.004-11.127V503.124l356.956,185.563L91.063,979.585z M1076.44,1002.953H124.167L493.708,700.1
		c0.033-0.027,0.067-0.054,0.1-0.081l49.17-40.297c0.029-0.023,0.056-0.047,0.084-0.07l43.454-35.612
		c12.867-10.54,31.411-10.388,44.1,0.362l83.983,71.184c0.054,0.046,0.107,0.092,0.162,0.137l362.387,307.158
		C1076.907,1002.886,1076.682,1002.953,1076.44,1002.953z M1110.941,968.458c0,3.638-0.722,7.078-1.771,10.373L761.964,684.539
		l348.977-181.414V968.458z"/>
</g>
</svg>
